<svg id="Group_54" data-name="Group 54" xmlns="http://www.w3.org/2000/svg" viewBox="0 0 56 56">
  <defs>
    <style>
      .cls-1 {
        fill: none;
        stroke: #505070;
        stroke-linecap: round;
        stroke-linejoin: round;
        stroke-miterlimit: 10;
        stroke-width: 2px;
      }
    </style>
  </defs>
  <circle id="Ellipse_26" data-name="Ellipse 26" class="cls-1" cx="27" cy="27" r="27" transform="translate(1 1)"/>
  <circle id="Ellipse_27" data-name="Ellipse 27" class="cls-1" cx="19" cy="19" r="19" transform="translate(9 9)"/>
  <line id="Line_39" data-name="Line 39" class="cls-1" transform="translate(28 5)"/>
  <line id="Line_40" data-name="Line 40" class="cls-1" transform="translate(28 51)"/>
  <line id="Line_41" data-name="Line 41" class="cls-1" transform="translate(51 28)"/>
  <line id="Line_42" data-name="Line 42" class="cls-1" transform="translate(5 28)"/>
  <line id="Line_43" data-name="Line 43" class="cls-1" transform="translate(44.3 11.7)"/>
  <line id="Line_44" data-name="Line 44" class="cls-1" transform="translate(11.7 44.3)"/>
  <line id="Line_45" data-name="Line 45" class="cls-1" transform="translate(44.3 44.3)"/>
  <line id="Line_46" data-name="Line 46" class="cls-1" transform="translate(11.7 11.7)"/>
  <path id="Path_66" data-name="Path 66" class="cls-1" d="M42.5,31.5,40,29l-2.5,2.5a4.951,4.951,0,0,1-7.1,0L28,29l-2.5,2.5a4.951,4.951,0,0,1-7.1,0L16,29l-2.5,2.5a4.879,4.879,0,0,1-3.9,1.4A19.108,19.108,0,0,0,28,47,18.9,18.9,0,0,0,46.3,32.9,4.89,4.89,0,0,1,42.5,31.5Z"/>
</svg>
