<svg xmlns="http://www.w3.org/2000/svg" viewBox="0 0 58.111 59">
  <defs>
    <style>
      .cls-1 {
        fill: none;
        stroke: #505070;
        stroke-linecap: round;
        stroke-linejoin: round;
        stroke-miterlimit: 10;
        stroke-width: 2px;
      }
    </style>
  </defs>
  <g id="Group_62" data-name="Group 62" transform="translate(-0.589)">
    <line id="Line_103" data-name="Line 103" class="cls-1" transform="translate(3 57)"/>
    <line id="Line_104" data-name="Line 104" class="cls-1" transform="translate(1 59)"/>
    <line id="Line_105" data-name="Line 105" class="cls-1" transform="translate(5 59)"/>
    <line id="Line_106" data-name="Line 106" class="cls-1" transform="translate(7 57)"/>
    <line id="Line_107" data-name="Line 107" class="cls-1" transform="translate(11 57)"/>
    <line id="Line_108" data-name="Line 108" class="cls-1" transform="translate(9 59)"/>
    <line id="Line_109" data-name="Line 109" class="cls-1" transform="translate(13 59)"/>
    <line id="Line_110" data-name="Line 110" class="cls-1" transform="translate(15 57)"/>
    <line id="Line_111" data-name="Line 111" class="cls-1" transform="translate(19 57)"/>
    <line id="Line_112" data-name="Line 112" class="cls-1" transform="translate(17 59)"/>
    <line id="Line_113" data-name="Line 113" class="cls-1" transform="translate(21 59)"/>
    <line id="Line_114" data-name="Line 114" class="cls-1" transform="translate(23 57)"/>
    <line id="Line_115" data-name="Line 115" class="cls-1" transform="translate(27 57)"/>
    <line id="Line_116" data-name="Line 116" class="cls-1" transform="translate(25 59)"/>
    <line id="Line_117" data-name="Line 117" class="cls-1" transform="translate(29 59)"/>
    <line id="Line_118" data-name="Line 118" class="cls-1" transform="translate(31 57)"/>
    <line id="Line_119" data-name="Line 119" class="cls-1" transform="translate(33 59)"/>
    <line id="Line_120" data-name="Line 120" class="cls-1" transform="translate(35 57)"/>
    <line id="Line_121" data-name="Line 121" class="cls-1" transform="translate(39 57)"/>
    <line id="Line_122" data-name="Line 122" class="cls-1" transform="translate(37 59)"/>
    <line id="Line_123" data-name="Line 123" class="cls-1" transform="translate(41 59)"/>
    <line id="Line_124" data-name="Line 124" class="cls-1" transform="translate(43 57)"/>
    <line id="Line_125" data-name="Line 125" class="cls-1" transform="translate(45 59)"/>
    <line id="Line_126" data-name="Line 126" class="cls-1" transform="translate(47 57)"/>
    <line id="Line_127" data-name="Line 127" class="cls-1" transform="translate(51 57)"/>
    <line id="Line_128" data-name="Line 128" class="cls-1" transform="translate(49 59)"/>
    <line id="Line_129" data-name="Line 129" class="cls-1" transform="translate(53 59)"/>
    <line id="Line_130" data-name="Line 130" class="cls-1" transform="translate(55 57)"/>
    <line id="Line_131" data-name="Line 131" class="cls-1" transform="translate(57 59)"/>
    <g id="Group_59" data-name="Group 59">
      <path id="Path_75" data-name="Path 75" class="cls-1" d="M20.8,11.4a4.146,4.146,0,0,1,1.6.3"/>
      <path id="Path_76" data-name="Path 76" class="cls-1" d="M5.6,11.7a4.146,4.146,0,0,1,1.6-.3"/>
      <path id="Path_77" data-name="Path 77" class="cls-1" d="M10.8,8.9a2.836,2.836,0,0,1,.9,1"/>
      <path id="Path_78" data-name="Path 78" class="cls-1" d="M22.4,11.7V11a6.018,6.018,0,0,0-6-6,5.869,5.869,0,0,0-5.6,3.9,3.221,3.221,0,0,0-2-.7,3.159,3.159,0,0,0-3.2,3.2v.3a4.749,4.749,0,0,0-3.2,4.5A4.8,4.8,0,0,0,7.2,21H20.9a4.739,4.739,0,0,0,4.8-4.8A4.876,4.876,0,0,0,22.4,11.7Z"/>
    </g>
    <g id="Group_60" data-name="Group 60">
      <path id="Path_79" data-name="Path 79" class="cls-1" d="M43.9,17.8a5.019,5.019,0,0,0-1.2.2"/>
      <path id="Path_80" data-name="Path 80" class="cls-1" d="M55.3,18a5.019,5.019,0,0,0-1.2-.2"/>
      <path id="Path_81" data-name="Path 81" class="cls-1" d="M51.4,15.9a2.7,2.7,0,0,0-.7.8"/>
      <path id="Path_82" data-name="Path 82" class="cls-1" d="M42.7,18v-.5a4.5,4.5,0,0,1,8.7-1.6,2.425,2.425,0,0,1,3.9,1.9V18a3.6,3.6,0,0,1-1.2,7H43.9a3.6,3.6,0,0,1-1.2-7Z"/>
    </g>
    <path id="Path_83" data-name="Path 83" class="cls-1" d="M10,53V46A18.992,18.992,0,0,1,29,27h0A18.992,18.992,0,0,1,48,46v7Z"/>
    <line id="Line_132" data-name="Line 132" class="cls-1" y2="4" transform="translate(56 49)"/>
    <line id="Line_133" data-name="Line 133" class="cls-1" y2="4" transform="translate(2 49)"/>
    <line id="Line_134" data-name="Line 134" class="cls-1" x1="8" y2="7" transform="translate(2 46)"/>
    <line id="Line_135" data-name="Line 135" class="cls-1" x2="8" y2="7" transform="translate(48 46)"/>
    <g id="Group_61" data-name="Group 61">
      <line id="Line_136" data-name="Line 136" class="cls-1" y1="1" transform="translate(38 16)"/>
      <line id="Line_137" data-name="Line 137" class="cls-1" y1="1" transform="translate(38 1)"/>
      <line id="Line_138" data-name="Line 138" class="cls-1" x2="1" transform="translate(30 9)"/>
      <line id="Line_139" data-name="Line 139" class="cls-1" x2="1" transform="translate(45 9)"/>
      <line id="Line_140" data-name="Line 140" class="cls-1" y1="0.8" x2="0.8" transform="translate(32.3 13.9)"/>
      <line id="Line_141" data-name="Line 141" class="cls-1" y1="0.8" x2="0.8" transform="translate(42.9 3.3)"/>
      <line id="Line_142" data-name="Line 142" class="cls-1" x2="0.8" y2="0.8" transform="translate(32.3 3.3)"/>
      <circle id="Ellipse_29" data-name="Ellipse 29" class="cls-1" cx="4" cy="4" r="4" transform="translate(34 5)"/>
    </g>
    <rect id="Rectangle_185" data-name="Rectangle 185" class="cls-1" width="6" height="5" transform="translate(16 37)"/>
    <rect id="Rectangle_186" data-name="Rectangle 186" class="cls-1" width="6" height="5" transform="translate(36 37)"/>
    <path id="Path_84" data-name="Path 84" class="cls-1" d="M23.6,53H34.4L29,37Z"/>
    <line id="Line_143" data-name="Line 143" class="cls-1" x2="15" transform="translate(10 49)"/>
    <line id="Line_144" data-name="Line 144" class="cls-1" x2="14.9" transform="translate(33.1 49)"/>
  </g>
</svg>
