<svg id="Group_57" data-name="Group 57" xmlns="http://www.w3.org/2000/svg" viewBox="0 0 60 60">
  <defs>
    <style>
      .cls-1 {
        fill: none;
        stroke: #505070;
        stroke-linecap: round;
        stroke-linejoin: round;
        stroke-miterlimit: 10;
        stroke-width: 2px;
      }
    </style>
  </defs>
  <rect id="Rectangle_182" data-name="Rectangle 182" class="cls-1" width="16" height="45" transform="translate(31 14)"/>
  <line id="Line_47" data-name="Line 47" class="cls-1" x2="58" transform="translate(1 59)"/>
  <line id="Line_48" data-name="Line 48" class="cls-1" x2="16" transform="translate(31 53)"/>
  <line id="Line_49" data-name="Line 49" class="cls-1" x2="8" transform="translate(51 53)"/>
  <line id="Line_50" data-name="Line 50" class="cls-1" y1="2" transform="translate(39 18)"/>
  <line id="Line_51" data-name="Line 51" class="cls-1" y1="2" transform="translate(35 18)"/>
  <line id="Line_52" data-name="Line 52" class="cls-1" x2="18" transform="translate(30 14)"/>
  <line id="Line_53" data-name="Line 53" class="cls-1" y1="2" transform="translate(43 18)"/>
  <line id="Line_54" data-name="Line 54" class="cls-1" y1="2" transform="translate(39 24)"/>
  <line id="Line_55" data-name="Line 55" class="cls-1" y1="2" transform="translate(35 24)"/>
  <line id="Line_56" data-name="Line 56" class="cls-1" y1="2" transform="translate(43 24)"/>
  <line id="Line_57" data-name="Line 57" class="cls-1" y1="2" transform="translate(39 30)"/>
  <line id="Line_58" data-name="Line 58" class="cls-1" y1="2" transform="translate(35 30)"/>
  <line id="Line_59" data-name="Line 59" class="cls-1" y1="2" transform="translate(43 30)"/>
  <line id="Line_60" data-name="Line 60" class="cls-1" y1="2" transform="translate(39 36)"/>
  <line id="Line_61" data-name="Line 61" class="cls-1" y1="2" transform="translate(35 36)"/>
  <line id="Line_62" data-name="Line 62" class="cls-1" y1="2" transform="translate(43 36)"/>
  <line id="Line_63" data-name="Line 63" class="cls-1" y1="2" transform="translate(39 42)"/>
  <line id="Line_64" data-name="Line 64" class="cls-1" y1="2" transform="translate(35 42)"/>
  <line id="Line_65" data-name="Line 65" class="cls-1" y1="2" transform="translate(43 42)"/>
  <line id="Line_66" data-name="Line 66" class="cls-1" y1="2" transform="translate(39 48)"/>
  <line id="Line_67" data-name="Line 67" class="cls-1" y1="2" transform="translate(35 48)"/>
  <line id="Line_68" data-name="Line 68" class="cls-1" y1="2" transform="translate(43 48)"/>
  <path id="Path_67" data-name="Path 67" class="cls-1" d="M3,6V51H19V12Z"/>
  <line id="Line_69" data-name="Line 69" class="cls-1" y1="2" transform="translate(11 15)"/>
  <line id="Line_70" data-name="Line 70" class="cls-1" y1="2" transform="translate(7 15)"/>
  <line id="Line_71" data-name="Line 71" class="cls-1" y1="2" transform="translate(15 15)"/>
  <line id="Line_72" data-name="Line 72" class="cls-1" y1="2" transform="translate(11 21)"/>
  <line id="Line_73" data-name="Line 73" class="cls-1" y1="2" transform="translate(7 21)"/>
  <line id="Line_74" data-name="Line 74" class="cls-1" y1="2" transform="translate(15 21)"/>
  <line id="Line_75" data-name="Line 75" class="cls-1" y1="2" transform="translate(11 27)"/>
  <line id="Line_76" data-name="Line 76" class="cls-1" y1="2" transform="translate(7 27)"/>
  <line id="Line_77" data-name="Line 77" class="cls-1" y1="2" transform="translate(15 27)"/>
  <line id="Line_78" data-name="Line 78" class="cls-1" y1="2" transform="translate(11 33)"/>
  <line id="Line_79" data-name="Line 79" class="cls-1" y1="2" transform="translate(7 33)"/>
  <line id="Line_80" data-name="Line 80" class="cls-1" y1="2" transform="translate(15 33)"/>
  <line id="Line_81" data-name="Line 81" class="cls-1" y1="2" transform="translate(11 39)"/>
  <line id="Line_82" data-name="Line 82" class="cls-1" y1="2" transform="translate(7 39)"/>
  <line id="Line_83" data-name="Line 83" class="cls-1" y1="2" transform="translate(15 39)"/>
  <line id="Line_84" data-name="Line 84" class="cls-1" y1="2" transform="translate(11 45)"/>
  <line id="Line_85" data-name="Line 85" class="cls-1" y1="2" transform="translate(7 45)"/>
  <line id="Line_86" data-name="Line 86" class="cls-1" y1="2" transform="translate(15 45)"/>
  <path id="Path_68" data-name="Path 68" class="cls-1" d="M51,59h8V49H51"/>
  <line id="Line_87" data-name="Line 87" class="cls-1" y1="6" transform="translate(51 53)"/>
  <line id="Line_88" data-name="Line 88" class="cls-1" y1="6" transform="translate(55 53)"/>
  <rect id="Rectangle_183" data-name="Rectangle 183" class="cls-1" width="24" height="4" transform="translate(1 55)"/>
  <line id="Line_89" data-name="Line 89" class="cls-1" y2="4" transform="translate(9 55)"/>
  <line id="Line_90" data-name="Line 90" class="cls-1" y2="4" transform="translate(5 55)"/>
  <line id="Line_91" data-name="Line 91" class="cls-1" y2="4" transform="translate(21 55)"/>
  <line id="Line_92" data-name="Line 92" class="cls-1" y2="4" transform="translate(17 55)"/>
  <rect id="Rectangle_184" data-name="Rectangle 184" class="cls-1" width="24" height="4" transform="translate(1 51)"/>
  <path id="Path_69" data-name="Path 69" class="cls-1" d="M32.9,9,31,14H47L45,9Z"/>
  <path id="Path_70" data-name="Path 70" class="cls-1" d="M38,1,37,9h4L40,1Z"/>
  <g id="Group_55" data-name="Group 55">
    <path id="Path_71" data-name="Path 71" class="cls-1" d="M27,26H23V47"/>
    <line id="Line_93" data-name="Line 93" class="cls-1" x2="8" transform="translate(23 59)"/>
    <line id="Line_94" data-name="Line 94" class="cls-1" y1="2" transform="translate(27 30)"/>
    <line id="Line_95" data-name="Line 95" class="cls-1" y1="2" transform="translate(27 36)"/>
    <line id="Line_96" data-name="Line 96" class="cls-1" y1="2" transform="translate(27 42)"/>
  </g>
  <g id="Group_56" data-name="Group 56">
    <path id="Path_72" data-name="Path 72" class="cls-1" d="M51,26h8V49H51"/>
    <line id="Line_97" data-name="Line 97" class="cls-1" y1="2" transform="translate(55 30)"/>
    <line id="Line_98" data-name="Line 98" class="cls-1" y1="2" transform="translate(55 36)"/>
    <line id="Line_99" data-name="Line 99" class="cls-1" y1="2" transform="translate(55 42)"/>
    <line id="Line_100" data-name="Line 100" class="cls-1" y1="2" transform="translate(51 30)"/>
    <line id="Line_101" data-name="Line 101" class="cls-1" y1="2" transform="translate(51 36)"/>
    <line id="Line_102" data-name="Line 102" class="cls-1" y1="2" transform="translate(51 42)"/>
  </g>
  <path id="Path_73" data-name="Path 73" class="cls-1" d="M51,23h5v3H51"/>
</svg>
