<svg id="Group_48" data-name="Group 48" xmlns="http://www.w3.org/2000/svg" viewBox="0 0 72.759 78">
  <defs>
    <style>
      .cls-1 {
        fill: none;
        stroke: #707070;
        stroke-linecap: round;
        stroke-linejoin: round;
        stroke-miterlimit: 10;
        stroke-width: 2px;
      }
    </style>
  </defs>
  <path id="Path_41" data-name="Path 41" class="cls-1" d="M35.581,51.5a2.038,2.038,0,0,0,.786,2.621A14.251,14.251,0,0,1,43.312,57c.786.655.393,3.014-.524,3.276a70.038,70.038,0,0,1-11.793,1.048,65.364,65.364,0,0,1-11.662-1.048c-1.048-.262-1.31-2.621-.524-3.276a14.286,14.286,0,0,1,6.814-2.883,1.918,1.918,0,0,0,.786-2.621" transform="translate(5.385 15.672)"/>
  <path id="Path_42" data-name="Path 42" class="cls-1" d="M37.11,45.9c0-.393.393-.655.524-1.834a5.825,5.825,0,0,0-4.062-6.29c-1.048-.393-5.241-1.834-6.159.917-.262-1.179-.917-.917-1.441-.655-2.752,1.179-4.717,3.145-3.931,6.552.131.393.524.524.786,1.441a1.887,1.887,0,0,0-.786,1.31c0,.917.262,2.752,1.31,3.276a21.243,21.243,0,0,0,1.572,5.241c1.834,1.7,3.407,2.359,4.062,2.359a2.856,2.856,0,0,1,.786-.131,1.9,1.9,0,0,1,.786.131,12.636,12.636,0,0,0,3.931-2.359,19.388,19.388,0,0,0,1.572-5.241c1.048-.524,1.31-2.359,1.31-3.276a1.887,1.887,0,0,0-.786-1.31C36.848,45.5,37.11,45.9,37.11,45.9Z" transform="translate(6.476 11.186)"/>
  <path id="Path_43" data-name="Path 43" class="cls-1" d="M22.4,43.762c-.131-1.572,2.621-2.49,3.407-2.359-.262.917,1.048,1.7,2.752,1.834,3.276.393,9.041-1.966,8.648.786" transform="translate(6.64 12.535)"/>
  <line id="Line_4" data-name="Line 4" class="cls-1" x2="0.131" transform="translate(34.021 59.834)"/>
  <line id="Line_5" data-name="Line 5" class="cls-1" x2="0.131" transform="translate(38.607 59.834)"/>
  <path id="Path_44" data-name="Path 44" class="cls-1" d="M29.621,50.2A3.056,3.056,0,0,1,27,50.2" transform="translate(8.069 15.269)"/>
  <path id="Path_45" data-name="Path 45" class="cls-1" d="M42.9,47.5a1.918,1.918,0,0,1-.786,2.621,16.7,16.7,0,0,0-5.11,1.7" transform="translate(11.172 14.431)"/>
  <path id="Path_46" data-name="Path 46" class="cls-1" d="M41.4,57.228c1.441.131,3.014.131,4.586.131a55.185,55.185,0,0,0,11.793-1.179c1.048-.262,1.31-2.621.524-3.276a14.251,14.251,0,0,0-6.945-2.883,1.918,1.918,0,0,1-.786-2.621" transform="translate(12.538 14.4)"/>
  <path id="Path_47" data-name="Path 47" class="cls-1" d="M54.11,41.9c0-.393.393-.655.524-1.834a5.825,5.825,0,0,0-4.062-6.29c-1.048-.393-5.241-1.834-6.159.917-.262-1.179-.917-.917-1.441-.655-2.752,1.179-4.717,3.145-3.931,6.552.131.393.524.524.786,1.441a1.887,1.887,0,0,0-.786,1.31c0,.917.262,2.752,1.31,3.276a21.243,21.243,0,0,0,1.572,5.241c1.834,1.7,3.407,2.359,4.062,2.359a2.856,2.856,0,0,1,.786-.131,1.9,1.9,0,0,1,.786.131,12.636,12.636,0,0,0,3.931-2.359,19.388,19.388,0,0,0,1.572-5.241c1.048-.524,1.31-2.359,1.31-3.276a1.887,1.887,0,0,0-.786-1.31C53.848,41.5,54.11,41.9,54.11,41.9Z" transform="translate(11.752 9.945)"/>
  <path id="Path_48" data-name="Path 48" class="cls-1" d="M39.4,39.762c-.131-1.572,2.621-2.49,3.407-2.359-.262.917,1.048,1.7,2.752,1.834,3.276.393,9.041-1.966,8.648.786" transform="translate(11.916 11.294)"/>
  <line id="Line_6" data-name="Line 6" class="cls-1" x2="0.131" transform="translate(56.297 54.593)"/>
  <line id="Line_7" data-name="Line 7" class="cls-1" x2="0.131" transform="translate(60.883 54.593)"/>
  <path id="Path_49" data-name="Path 49" class="cls-1" d="M46.621,46.2A3.056,3.056,0,0,1,44,46.2" transform="translate(13.345 14.028)"/>
  <path id="Path_50" data-name="Path 50" class="cls-1" d="M9.424,47.5a1.918,1.918,0,0,1-.786,2.621A13.2,13.2,0,0,0,1.824,53c-.917.655-.524,3.014.393,3.276A67.19,67.19,0,0,0,14.01,57.328c1.7,0,3.276-.131,4.717-.131" transform="translate(0.094 14.431)"/>
  <path id="Path_51" data-name="Path 51" class="cls-1" d="M20.581,51.724a15.367,15.367,0,0,0-5.241-1.7,1.918,1.918,0,0,1-.786-2.621" transform="translate(4.136 14.4)"/>
  <path id="Path_52" data-name="Path 52" class="cls-1" d="M20.11,41.9c0-.393.393-.655.524-1.834a5.825,5.825,0,0,0-4.062-6.29c-1.048-.393-5.241-1.834-6.159.917-.262-1.179-.917-.917-1.441-.655-2.752,1.179-4.717,3.145-3.931,6.552.131.393.524.524.786,1.441a1.887,1.887,0,0,0-.786,1.31c0,.917.262,2.752,1.31,3.276a21.243,21.243,0,0,0,1.572,5.241c1.834,1.7,3.407,2.359,4.062,2.359a2.856,2.856,0,0,1,.786-.131,1.9,1.9,0,0,1,.786.131,12.636,12.636,0,0,0,3.931-2.359,19.388,19.388,0,0,0,1.572-5.241c1.048-.524,1.31-2.359,1.31-3.276a1.887,1.887,0,0,0-.786-1.31C19.848,41.5,20.11,41.9,20.11,41.9Z" transform="translate(1.2 9.945)"/>
  <path id="Path_53" data-name="Path 53" class="cls-1" d="M5.4,39.762c-.131-1.572,2.621-2.49,3.407-2.359-.262.917,1.048,1.7,2.752,1.834,3.276.393,9.041-1.966,8.648.786" transform="translate(1.364 11.294)"/>
  <line id="Line_8" data-name="Line 8" class="cls-1" x2="0.131" transform="translate(11.745 54.593)"/>
  <line id="Line_9" data-name="Line 9" class="cls-1" x2="0.131" transform="translate(16.331 54.593)"/>
  <path id="Path_54" data-name="Path 54" class="cls-1" d="M12.621,46.2A3.056,3.056,0,0,1,10,46.2" transform="translate(2.793 14.028)"/>
  <path id="Path_55" data-name="Path 55" class="cls-1" d="M66.517,1H6.241A5.257,5.257,0,0,0,1,6.241V29.828a5.257,5.257,0,0,0,5.241,5.241H8.862L14.1,40.31l5.241-5.241h9.172l7.862,7.862,7.862-7.862h9.172l5.241,5.241L63.9,35.069h2.621a5.257,5.257,0,0,0,5.241-5.241V6.241A5.257,5.257,0,0,0,66.517,1Z"/>
  <line id="Line_10" data-name="Line 10" class="cls-1" x1="13.103" transform="translate(12.793 8.862)"/>
  <line id="Line_11" data-name="Line 11" class="cls-1" x1="5.241" transform="translate(31.138 8.862)"/>
  <line id="Line_12" data-name="Line 12" class="cls-1" x1="2.621" transform="translate(12.793 14.103)"/>
  <line id="Line_13" data-name="Line 13" class="cls-1" x1="7.862" transform="translate(52.103 14.103)"/>
  <line id="Line_14" data-name="Line 14" class="cls-1" x1="18.345" transform="translate(41.621 8.862)"/>
  <line id="Line_15" data-name="Line 15" class="cls-1" x1="26.207" transform="translate(20.655 14.103)"/>
  <line id="Line_16" data-name="Line 16" class="cls-1" x1="15.724" transform="translate(12.793 19.345)"/>
  <line id="Line_17" data-name="Line 17" class="cls-1" x1="18.345" transform="translate(33.759 19.345)"/>
  <line id="Line_18" data-name="Line 18" class="cls-1" transform="translate(31.138 27.207)"/>
  <line id="Line_19" data-name="Line 19" class="cls-1" transform="translate(36.379 27.207)"/>
  <line id="Line_20" data-name="Line 20" class="cls-1" transform="translate(41.621 27.207)"/>
</svg>
