<svg xmlns="http://www.w3.org/2000/svg" viewBox="0 0 58.108 57.849">
  <defs>
    <style>
      .cls-1 {
        fill: none;
        stroke: #505070;
        stroke-linecap: round;
        stroke-linejoin: round;
        stroke-miterlimit: 10;
        stroke-width: 2px;
      }
    </style>
  </defs>
  <g id="Group_58" data-name="Group 58" transform="translate(0.008 -0.051)">
    <circle id="Ellipse_28" data-name="Ellipse 28" class="cls-1" cx="5.5" cy="5.5" r="5.5" transform="translate(37.2 45)"/>
    <path id="Path_74" data-name="Path 74" class="cls-1" d="M4.2,38.6c12.2,0,12.9-3.1,14-5.5,1.2-2.5,3.8-8.6,3.8-8.6.3-1.3.7-3.8-1.6-3.4l-2.8.4c-3.1,3.4-4.1,3.9-4.1,4.5a5.67,5.67,0,0,1-.8,1.3,6.416,6.416,0,0,0-.5,1.1c-1.1,3.4-5.2,2.5-5.1.2,0,0,1.4-1.3,1.6-1.6a7.8,7.8,0,0,0,.4-2.2,34.088,34.088,0,0,1,2.4-5c2.6-5.4,17.3-6.7,17.3-6.7l.5-1.7c.5-1.6-2.4-2.7-1.7-5.7a5.9,5.9,0,0,1,4.6-4.5A6.021,6.021,0,1,1,34.6,13s-2,.3,0,.1c6.1-.5,14.3,1.7,14.3,1.7L52,15.9a9.032,9.032,0,0,1,3.6.6c2.3,1.1,1.8,3.9-.6,3.9a10.785,10.785,0,0,0-3.1-1L49,18.9s-8.2-.9-11.1,0a6.732,6.732,0,0,0-3.6,2.8l-2.2,5.1a5.273,5.273,0,0,0,.6,5.4,4.234,4.234,0,0,1,.5.7,11.487,11.487,0,0,1,1,12c-.9,2.1-3.7,7.2-3.7,7.2-1.3,2.5,3.2,2.8,2.2,4.8H28a3.022,3.022,0,0,1-1.6-.5c-1.3-.8-1.4-2.4-1-3.9.7-2.7,2.1-6.6,2.5-8.7.4-2.5-.1-4-1.6-6.2-.8-1.1-.2-.2-.9-1.2-2.6,4.4-5.4,6.7-12.6,6.7L6.3,43c-2-.1-2,4.9-5.2,3.8C1.1,46.8.1,38.6,4.2,38.6Z"/>
  </g>
</svg>
